<?xml version="1.0" standalone="no"?>
<!DOCTYPE svg PUBLIC "-//W3C//DTD SVG 20010904//EN"
 "http://www.w3.org/TR/2001/REC-SVG-20010904/DTD/svg10.dtd">
<svg version="1.0" xmlns="http://www.w3.org/2000/svg"
 width="100.000000pt" height="100.000000pt" viewBox="0 0 100.000000 100.000000"
 preserveAspectRatio="xMidYMid meet">

<g transform="translate(0.000000,100.000000) scale(0.100000,-0.100000)"
fill="#000000" stroke="none">
<path d="M152 988 c-7 -7 -12 -33 -12 -60 0 -53 15 -68 69 -68 26 0 31 4 31
25 l0 25 260 0 260 0 0 -24 c0 -21 4 -23 40 -20 55 4 60 9 60 64 0 39 -4 52
-19 60 -29 15 -673 14 -689 -2z"/>
<path d="M818 678 c-31 -38 -18 -88 23 -88 23 0 33 -29 12 -37 -9 -4 -19 -1
-21 5 -5 16 -32 15 -32 0 1 -15 34 -58 45 -58 16 0 44 47 45 73 0 23 -6 31
-30 40 -29 11 -39 30 -21 42 5 3 12 1 16 -5 9 -14 35 -12 35 3 0 13 -35 47
-48 47 -4 0 -15 -10 -24 -22z"/>
<path d="M350 655 c0 -8 7 -15 15 -15 8 0 15 7 15 15 0 8 -7 15 -15 15 -8 0
-15 -7 -15 -15z"/>
<path d="M420 655 c0 -12 19 -15 115 -15 96 0 115 3 115 15 0 12 -19 15 -115
15 -96 0 -115 -3 -115 -15z"/>
<path d="M350 585 c0 -8 7 -15 15 -15 8 0 15 7 15 15 0 8 -7 15 -15 15 -8 0
-15 -7 -15 -15z"/>
<path d="M420 585 c0 -12 19 -15 115 -15 96 0 115 3 115 15 0 12 -19 15 -115
15 -96 0 -115 -3 -115 -15z"/>
<path d="M350 514 c0 -9 5 -14 12 -12 18 6 21 28 4 28 -9 0 -16 -7 -16 -16z"/>
<path d="M420 516 c0 -12 21 -14 115 -13 84 2 115 5 115 15 0 9 -30 12 -115
12 -93 0 -115 -3 -115 -14z"/>
<path d="M128 475 c-31 -42 -18 -95 23 -95 23 0 30 -12 19 -30 -7 -12 -12 -12
-22 -2 -6 6 -18 12 -25 12 -18 0 -16 -29 2 -36 8 -4 15 -12 15 -18 0 -7 7 -13
15 -13 8 0 15 6 15 13 0 6 7 15 16 18 27 10 14 68 -18 84 -16 7 -28 17 -28 22
0 15 21 23 33 11 30 -30 36 2 8 37 -24 28 -32 27 -53 -3z"/>
<path d="M731 229 c-29 -39 -22 -73 19 -87 16 -6 30 -15 30 -21 0 -16 -21 -24
-33 -12 -13 13 -37 15 -37 3 0 -5 11 -22 24 -37 l24 -28 26 29 c14 16 26 36
26 45 0 17 -25 42 -52 52 -10 4 -18 11 -18 16 0 18 19 22 39 9 31 -19 36 -2
10 31 -13 16 -27 30 -30 30 -3 1 -15 -13 -28 -30z"/>
<path d="M330 240 c0 -6 32 -10 75 -10 43 0 75 4 75 10 0 6 -32 10 -75 10 -43
0 -75 -4 -75 -10z"/>
<path d="M520 240 c0 -5 7 -10 15 -10 8 0 15 5 15 10 0 6 -7 10 -15 10 -8 0
-15 -4 -15 -10z"/>
<path d="M403 183 c-96 -5 -94 -23 2 -23 60 0 75 3 75 15 0 8 -1 14 -2 13 -2
-1 -36 -4 -75 -5z"/>
<path d="M533 183 c-18 -7 -16 -23 2 -23 8 0 15 7 15 15 0 8 -1 15 -2 14 -2 0
-9 -3 -15 -6z"/>
</g>
</svg>
