<?xml version="1.0" standalone="no"?>
<!DOCTYPE svg PUBLIC "-//W3C//DTD SVG 20010904//EN"
 "http://www.w3.org/TR/2001/REC-SVG-20010904/DTD/svg10.dtd">
<svg version="1.0" xmlns="http://www.w3.org/2000/svg"
 width="227.000000pt" height="221.000000pt" viewBox="0 0 227.000000 221.000000"
 preserveAspectRatio="xMidYMid meet">

<g transform="translate(0.000000,221.000000) scale(0.100000,-0.100000)"
fill="#000000" stroke="none">
<path d="M920 2113 c-36 -9 -59 -18 -52 -20 6 -3 12 -13 12 -24 0 -10 7 -19
15 -19 9 0 15 -9 15 -21 0 -18 4 -21 28 -16 74 15 205 18 287 8 489 -64 843
-494 810 -984 -3 -54 -8 -104 -12 -112 -3 -8 0 -15 6 -15 6 0 11 8 11 18 0 11
5 8 15 -11 8 -15 23 -39 33 -52 l20 -25 17 84 c26 126 17 348 -19 471 -87 290
-296 532 -561 650 -139 61 -218 78 -395 81 -127 3 -180 0 -230 -13z"/>
<path d="M977 1970 c-81 -14 -178 -48 -251 -88 -76 -41 -94 -62 -49 -55 l28 4
-27 -16 c-18 -10 -28 -24 -28 -38 0 -12 -9 -28 -19 -34 -13 -8 -18 -20 -14
-35 4 -20 3 -21 -7 -5 -9 15 -20 16 -63 11 -62 -8 -89 -30 -154 -127 -191
-286 -189 -669 3 -959 197 -296 553 -441 903 -368 92 19 228 75 293 122 28 19
29 22 14 34 -16 11 -16 13 2 18 11 4 26 21 33 39 7 18 21 38 32 46 13 10 17
20 13 40 l-7 26 19 -23 c15 -19 22 -22 44 -13 14 5 28 8 31 5 11 -11 90 96
127 173 66 134 83 214 84 383 0 122 -3 158 -22 225 -111 389 -455 649 -851
644 -47 -1 -108 -5 -134 -9z m231 -267 c43 -31 75 -104 67 -154 -8 -44 -53
-104 -86 -114 -17 -6 -9 -12 38 -34 131 -62 249 -252 287 -463 l7 -38 -74 0
-74 0 -6 59 c-6 57 -31 136 -49 155 -4 6 -8 -40 -8 -102 l0 -112 -190 0 -190
0 0 112 c0 62 -4 108 -8 102 -18 -19 -43 -98 -49 -155 l-6 -59 -74 0 -74 0 7
38 c38 212 156 401 289 464 33 15 55 28 48 28 -26 0 -83 62 -94 103 -19 71 20
154 85 183 41 19 120 12 154 -13z m-380 -243 c62 -38 70 -114 18 -166 -18 -18
-29 -35 -24 -36 6 -2 -9 -41 -32 -86 -23 -46 -52 -124 -65 -175 -22 -89 -24
-92 -53 -95 l-31 -3 -3 78 c-3 75 -4 77 -17 48 -7 -16 -16 -51 -19 -77 l-5
-48 -53 0 -53 0 20 71 c11 39 32 96 48 127 30 60 111 144 150 157 l23 7 -21
15 c-24 16 -51 64 -51 88 0 33 32 84 63 99 43 21 66 20 105 -4z m687 4 c33
-15 65 -64 65 -99 0 -24 -27 -72 -51 -88 l-21 -15 23 -7 c66 -21 155 -142 192
-260 31 -100 32 -95 -29 -95 l-54 0 0 38 c0 20 -9 55 -19 77 l-19 40 -1 -78
-1 -78 -31 3 c-30 3 -32 5 -54 95 -13 51 -42 129 -65 175 -23 45 -38 84 -32
86 5 1 -6 18 -24 36 -26 26 -34 42 -34 70 0 43 22 81 59 101 34 19 56 18 96
-1z m225 -629 c6 4 10 -6 10 -22 l0 -27 -16 22 c-20 29 -69 27 -69 -2 0 -13
14 -23 45 -35 39 -14 45 -21 48 -48 4 -41 -33 -69 -75 -57 -16 4 -34 6 -40 5
-8 -1 -13 10 -13 30 l0 31 29 -31 c33 -35 39 -37 65 -18 27 20 15 40 -35 57
-41 14 -44 18 -44 50 0 41 35 66 67 49 10 -6 23 -7 28 -4z m-1179 -55 c10 -33
19 -49 23 -40 3 8 12 33 19 55 12 35 18 40 48 42 19 1 28 0 22 -3 -9 -4 -13
-30 -13 -79 0 -49 4 -75 13 -78 6 -3 -8 -5 -33 -5 -25 0 -37 2 -27 5 14 4 17
16 17 71 0 76 -9 72 -35 -15 -10 -35 -22 -63 -26 -63 -4 0 -18 33 -31 73 l-23
72 -3 -60 c-3 -47 0 -62 14 -72 16 -12 14 -13 -16 -13 -26 0 -31 3 -22 12 16
16 16 145 0 152 -7 3 3 4 22 3 33 -2 35 -5 51 -57z m279 46 c0 -8 3 -23 6 -33
3 -11 -2 -8 -16 10 -13 16 -31 27 -46 27 -21 0 -24 -5 -24 -35 0 -35 16 -47
26 -20 11 27 24 16 24 -20 0 -36 -13 -47 -24 -20 -10 28 -26 15 -26 -21 0 -34
1 -35 32 -32 23 2 36 11 45 28 l13 25 0 -32 0 -33 -77 0 c-58 1 -73 3 -60 11
13 8 17 24 17 74 0 50 -4 66 -17 74 -14 8 0 10 55 11 56 0 72 -3 72 -14z m117
-42 l17 -56 19 56 c18 55 20 56 55 55 21 0 31 -3 25 -6 -9 -3 -13 -29 -13 -78
0 -49 4 -75 13 -78 6 -3 -8 -5 -33 -5 -25 0 -39 2 -32 5 8 3 12 27 11 71 l-1
67 -21 -68 c-12 -38 -26 -69 -32 -70 -5 -1 -19 30 -32 68 l-22 70 0 -61 c-1
-34 4 -65 11 -72 9 -9 4 -12 -22 -12 -29 1 -32 2 -17 11 13 8 17 24 17 74 0
50 -4 66 -17 74 -15 8 -11 10 19 11 36 0 37 -1 55 -56z m277 40 c20 -19 20
-29 1 -48 -14 -14 -14 -17 5 -36 24 -24 25 -34 4 -54 -11 -12 -34 -16 -82 -15
-37 0 -61 3 -54 6 8 3 12 29 12 78 0 49 -4 75 -12 78 -7 3 15 6 49 6 43 1 66
-4 77 -15z m186 -16 l-1 -33 -15 28 c-12 22 -21 28 -42 25 -22 -2 -28 -9 -30
-35 -4 -37 13 -44 34 -15 12 15 13 12 13 -28 0 -37 -2 -41 -9 -22 -15 36 -40
28 -40 -14 0 -34 1 -35 32 -32 23 2 36 11 45 28 l13 25 0 -32 0 -33 -77 1
c-43 1 -70 3 -60 6 14 4 17 16 17 78 0 62 -3 74 -17 78 -10 3 17 5 60 6 l77 1
0 -32z m164 16 c21 -20 20 -30 -4 -54 -19 -19 -19 -21 -2 -50 11 -16 22 -27
27 -22 4 4 6 0 3 -8 -2 -8 -14 -16 -26 -18 -17 -3 -23 4 -32 37 -14 52 -40 56
-40 7 0 -19 6 -37 13 -39 6 -3 -8 -6 -33 -6 -30 0 -40 2 -31 8 18 11 16 141
-2 153 -7 4 16 8 50 8 43 0 66 -5 77 -16z"/>
<path d="M1160 796 c0 -22 5 -36 13 -36 42 1 51 62 10 68 -20 3 -23 -1 -23
-32z"/>
<path d="M1160 716 c0 -32 3 -36 25 -36 47 0 44 61 -4 68 -18 3 -21 -1 -21
-32z"/>
<path d="M1510 796 c0 -22 5 -36 13 -36 42 1 51 62 10 68 -20 3 -23 -1 -23
-32z"/>
<path d="M117 1307 c-22 -101 -23 -300 -1 -405 53 -260 218 -504 434 -645 176
-114 312 -157 521 -164 149 -5 300 13 324 39 7 8 6 9 -2 4 -7 -4 -13 -3 -13 3
0 5 -14 18 -30 28 -18 10 -28 23 -25 31 4 11 -1 13 -18 8 -64 -16 -217 -17
-312 -3 -275 42 -522 206 -659 435 -113 190 -160 448 -120 652 6 26 4 30 -15
30 -12 0 -21 6 -21 15 0 8 -9 15 -19 15 -11 0 -21 8 -23 18 -2 9 -11 -18 -21
-61z"/>
<path d="M2035 900 c-3 -5 -1 -10 4 -10 6 0 11 5 11 10 0 6 -2 10 -4 10 -3 0
-8 -4 -11 -10z"/>
</g>
</svg>
